<?xml version="1.0" standalone="no"?>
<!DOCTYPE svg PUBLIC "-//W3C//DTD SVG 20010904//EN"
 "http://www.w3.org/TR/2001/REC-SVG-20010904/DTD/svg10.dtd">
<svg version="1.0" xmlns="http://www.w3.org/2000/svg"
 width="157.000000pt" height="157.000000pt" viewBox="0 0 157.000000 157.000000"
 preserveAspectRatio="xMidYMid meet">
<metadata>
Created by potrace 1.14, written by Peter Selinger 2001-2017
</metadata>
<g transform="translate(0.000000,157.000000) scale(0.100000,-0.100000)"
fill="#000000" stroke="none">
<path d="M378 1525 c-2 -2 -33 -5 -69 -9 -65 -6 -129 -16 -129 -21 0 -1 -5
-27 -10 -56 -6 -30 -13 -67 -15 -84 -2 -16 -16 -95 -30 -175 -14 -80 -28 -158
-30 -175 -3 -16 -7 -41 -10 -55 -5 -25 -8 -39 -26 -145 -6 -33 -12 -69 -14
-80 -1 -11 -10 -58 -19 -104 -9 -46 -16 -87 -16 -92 0 -5 31 -9 70 -8 55 1 70
5 74 18 2 9 19 99 36 201 18 102 34 191 36 199 6 20 86 7 143 -24 57 -32 90
-78 131 -180 66 -166 99 -204 191 -219 39 -6 35 -12 86 112 3 7 -3 12 -15 12
-59 0 -91 38 -127 150 -29 91 -99 190 -134 190 -25 0 1 16 49 29 62 18 109 43
147 80 86 82 91 244 11 332 -40 44 -118 86 -173 94 -45 6 -153 13 -157 10z
m162 -148 c72 -35 101 -106 73 -177 -34 -84 -109 -121 -261 -126 l-104 -4 6
28 c4 15 11 54 17 87 5 33 12 69 14 80 2 11 7 44 11 73 7 56 10 58 79 64 58 6
121 -4 165 -25z"/>
<path d="M982 1030 c-4 -3 -8 -12 -9 -20 -3 -20 -43 -258 -49 -290 -4 -23 -55
-312 -90 -510 -8 -47 -17 -103 -20 -126 l-6 -40 71 0 70 1 12 70 c6 38 13 79
15 90 2 11 8 45 14 75 6 30 12 64 14 75 6 34 19 119 20 130 1 6 70 11 181 13
99 1 183 6 187 10 4 4 10 25 13 47 3 22 8 46 10 53 3 9 -37 12 -180 12 l-184
0 4 28 c23 128 45 256 45 259 0 2 99 3 219 3 121 0 222 3 224 8 3 4 8 32 12
62 l7 55 -287 0 c-157 0 -289 -2 -293 -5z"/>
</g>
</svg>
